<?xml version="1.0" standalone="no"?>
<!DOCTYPE svg PUBLIC "-//W3C//DTD SVG 20010904//EN"
 "http://www.w3.org/TR/2001/REC-SVG-20010904/DTD/svg10.dtd">
<svg version="1.0" xmlns="http://www.w3.org/2000/svg"
 width="393.000000pt" height="383.000000pt" viewBox="0 0 393.000000 383.000000"
 preserveAspectRatio="xMidYMid meet">

<g transform="translate(0.000000,383.000000) scale(0.100000,-0.100000)"
fill="#000000" stroke="none">
<path d="M0 1915 l0 -1915 1965 0 1965 0 0 1915 0 1915 -1965 0 -1965 0 0
-1915z m1113 671 c18 -7 46 -30 62 -51 17 -21 187 -197 379 -391 l350 -353
-30 -27 c-16 -14 -38 -35 -50 -45 -21 -19 -21 -19 -166 143 -165 185 -311 355
-413 480 -38 48 -86 96 -106 107 -40 23 -60 48 -77 100 -18 52 -6 61 51 37z
m617 -201 l215 -215 215 215 216 216 158 -3 158 -3 -372 -377 c-205 -208 -375
-378 -378 -378 -4 0 -175 171 -380 380 l-374 380 164 0 163 0 215 -215z m1098
185 c4 -33 -32 -85 -85 -124 -23 -17 -92 -92 -154 -166 -178 -214 -409 -473
-644 -720 -44 -47 -161 -172 -259 -277 -129 -140 -185 -193 -201 -193 -14 0
-37 16 -59 40 -29 33 -34 44 -26 59 14 27 444 468 899 922 212 212 397 400
410 419 28 37 79 71 101 68 8 -2 16 -15 18 -28z m-1308 -866 l0 -221 -165
-158 -165 -157 0 571 0 572 165 -193 165 -193 0 -221z m1178 -251 l-3 -288
-167 164 -168 164 0 213 0 213 168 193 167 193 3 -282 c1 -156 1 -412 0 -570z
m-410 -52 c117 -122 202 -217 202 -228 0 -20 -53 -76 -81 -86 -9 -3 -21 -2
-26 1 -18 11 -384 406 -390 420 -5 12 72 102 87 102 3 0 97 -94 208 -209z"/>
</g>
</svg>
